<?xml version="1.0" encoding="UTF-8"?>
<svg version="1.1" xmlns="http://www.w3.org/2000/svg" width="1740" height="1704">
<path d="M0 0 C71.53835826 -0.03431435 143.07671751 -0.0661084 214.61508179 -0.08468628 C215.6755972 -0.08496239 216.73611261 -0.08523851 217.82876486 -0.08552299 C240.88228108 -0.09151023 263.93579738 -0.09705039 286.98931382 -0.10213066 C298.29642408 -0.10462511 309.60353431 -0.10721825 320.91064453 -0.10986328 C322.03577676 -0.1101248 323.16090899 -0.11038632 324.32013614 -0.11065576 C360.72189577 -0.11916292 397.12364915 -0.13417388 433.52540501 -0.15259444 C470.96484368 -0.17150549 508.4042789 -0.18378149 545.84372227 -0.18782998 C551.14417072 -0.1884062 556.44461916 -0.18905747 561.7450676 -0.18975449 C562.78816729 -0.18988933 563.83126697 -0.19002418 564.90597575 -0.19016311 C581.62803372 -0.19251717 598.35008094 -0.20176778 615.07213455 -0.21366407 C631.92519515 -0.22550396 648.77824521 -0.22991972 665.63130982 -0.22700275 C674.74567824 -0.22562507 683.86001788 -0.22739478 692.97438049 -0.23841095 C763.66480288 -0.32059412 763.66480288 -0.32059412 794 2 C795.12550459 2.08211975 796.25100918 2.1642395 797.41061997 2.24884772 C803.61451052 2.70257677 809.80777019 3.22091787 816 3.8125 C816.90058136 3.89681274 817.80116272 3.98112549 818.72903442 4.06799316 C906.06069425 12.28641918 992.0739754 31.76795033 1123 89 C1124.41708252 89.68811768 1124.41708252 89.68811768 1125.86279297 90.39013672 C1140.23701332 97.37722055 1154.17392052 104.98732621 1168 113 C1169.18824434 113.68631819 1170.3765607 114.3725117 1171.56494141 115.05859375 C1185.19797113 122.93640507 1198.79576092 130.84029242 1211.89208984 139.59277344 C1214.25126598 141.16774347 1216.61955256 142.72849889 1218.98828125 144.2890625 C1257.37619919 169.64781569 1294.39825238 197.26038571 1329.41601562 227.1171875 C1332.75792088 229.96384154 1336.14417724 232.74580852 1339.5625 235.5 C1344.63319551 239.6245599 1349.43192479 243.99616599 1354.22265625 248.4375 C1357.10962121 251.10114137 1360.04923334 253.69148348 1363.015625 256.265625 C1366.19180267 259.04165431 1369.3182983 261.87236341 1372.44921875 264.69921875 C1374.07327337 266.1641011 1375.70053785 267.62543831 1377.33203125 269.08203125 C1387.14597246 277.85436012 1396.88981303 286.74206778 1406.10876465 296.14147949 C1407.92688861 297.9281533 1409.80222474 299.58922355 1411.74023438 301.24414062 C1415.91691586 304.87678848 1419.83072022 308.71899558 1423.71875 312.65625 C1424.42092651 313.36221313 1425.12310303 314.06817627 1425.84655762 314.79553223 C1428.81383766 317.77897375 1431.77505363 320.7684071 1434.73681641 323.75732422 C1436.91618465 325.95490579 1439.09864947 328.14937938 1441.28125 330.34375 C1441.936698 331.00749634 1442.592146 331.67124268 1443.26745605 332.35510254 C1446.39735217 335.50129916 1449.56828622 338.53521163 1452.93164062 341.43164062 C1457.44301371 345.32639647 1461.62267647 349.51471646 1465.8125 353.75 C1466.62565674 354.56694336 1467.43881348 355.38388672 1468.27661133 356.22558594 C1471.7217734 359.68695042 1475.1609029 363.15428591 1478.60058594 366.62109375 C1481.12746508 369.16615188 1483.65741315 371.70813131 1486.1875 374.25 C1486.95231689 375.02311523 1487.71713379 375.79623047 1488.50512695 376.59277344 C1491.90737822 380.0103283 1495.33087435 383.33957305 1498.98632812 386.48632812 C1503.56055019 390.42599231 1507.78680615 394.67953399 1512.03125 398.96875 C1512.86660278 399.8078894 1513.70195557 400.64702881 1514.56262207 401.51159668 C1518.10336129 405.0685452 1521.63807324 408.6314612 1525.17333984 412.19384766 C1527.7697206 414.80840164 1530.36916566 417.41988184 1532.96875 420.03125 C1533.75544067 420.82623901 1534.54213135 421.62122803 1535.35266113 422.44030762 C1538.81021536 425.91300146 1542.28534776 429.30222078 1546 432.5 C1550.57029447 436.43436363 1554.79134191 440.6841176 1559.03125 444.96875 C1559.86660278 445.8078894 1560.70195557 446.64702881 1561.56262207 447.51159668 C1565.10336129 451.0685452 1568.63807324 454.6314612 1572.17333984 458.19384766 C1574.7697206 460.80840164 1577.36916566 463.41988184 1579.96875 466.03125 C1580.75544067 466.82623901 1581.54213135 467.62122803 1582.35266113 468.44030762 C1586.44346491 472.54902382 1590.61996202 476.46298209 1595.01330566 480.24484253 C1598.62998039 483.44001631 1602.02348653 486.86076317 1605.4375 490.26953125 C1606.20304199 491.03174484 1606.96858398 491.79395844 1607.75732422 492.57926941 C1609.35856229 494.17548212 1610.95848243 495.77301792 1612.55712891 497.37182617 C1615.01575594 499.82824177 1617.48230396 502.2765204 1619.94921875 504.72460938 C1621.50830044 506.28076129 1623.06691157 507.83738484 1624.625 509.39453125 C1625.36548584 510.12783157 1626.10597168 510.8611319 1626.86889648 511.61665344 C1627.54380127 512.29463486 1628.21870605 512.97261627 1628.9140625 513.67114258 C1629.5117041 514.26735916 1630.1093457 514.86357574 1630.72509766 515.4778595 C1632 517 1632 517 1632 519 C1576.94401624 519.01717496 1521.88803223 519.03308782 1466.83204651 519.04234314 C1466.01292289 519.0424812 1465.19379926 519.04261925 1464.34985371 519.04276149 C1446.534057 519.04575669 1428.71826025 519.04852654 1410.90246346 519.05106533 C1402.16145675 519.05231231 1393.42045006 519.05360891 1384.67944336 519.05493164 C1383.37491794 519.05512778 1383.37491794 519.05512778 1382.04403848 519.05532788 C1354.02124782 519.05956432 1325.99845923 519.06705659 1297.97566981 519.07629722 C1269.09949243 519.08580162 1240.22331618 519.09190186 1211.34713727 519.09391499 C1207.2378596 519.09420301 1203.12858194 519.09452864 1199.01930428 519.09487724 C1198.21079883 519.09494467 1197.40229338 519.09501209 1196.56928776 519.09508156 C1185.30450936 519.09610484 1174.03973375 519.09943971 1162.77495653 519.10463636 C1042.89864414 519.15988806 1042.89864414 519.15988806 1001.74633789 518.54467773 C1001.05844966 518.53445873 1000.37056142 518.52423972 999.66182809 518.51371105 C901.48545082 517.03474067 802.54903164 511.06522767 608 467 C607.29532593 466.77528015 606.59065186 466.5505603 605.86462402 466.31903076 C584.93525181 459.6287781 564.30036132 452.43467749 544 444 C542.82904785 443.5148291 541.6580957 443.0296582 540.45166016 442.52978516 C512.33884825 430.79999597 484.74571434 417.79720245 458.44042969 402.40966797 C455.40242248 400.65482067 452.32473621 398.98057318 449.24047852 397.30883789 C430.85064072 387.31306125 413.27516743 375.79949295 396 364 C395.12021484 363.40106934 394.24042969 362.80213867 393.33398438 362.18505859 C379.97589477 353.06906501 366.98281331 343.57123317 354.18847656 333.68164062 C351.37982783 331.52345539 348.53672968 329.41678284 345.6875 327.3125 C338.88785085 322.23465042 332.35400897 316.8319177 325.7890625 311.45703125 C323.50213372 309.59453249 321.18990491 307.76505651 318.875 305.9375 C314.23062428 302.23761077 309.73720173 298.37238807 305.24389648 294.49194336 C301.69114305 291.42915837 298.09513297 288.43783639 294.4375 285.5 C289.0720194 281.14747149 284.03611045 276.48464434 278.98828125 271.7734375 C276.6964159 269.63645686 274.37241243 267.54776652 272 265.5 C266.79275874 260.99142424 261.7724492 256.27716303 256.72314453 251.59375 C255.0168146 250.01555196 253.30444092 248.44420879 251.58984375 246.875 C246.02782193 241.7785005 240.54258141 236.65326451 235.29296875 231.23046875 C233.36238461 229.352507 231.39518534 227.60504863 229.3527832 225.8527832 C225.07134337 222.11661181 221.05461412 218.16602428 217.0625 214.125 C216.33812744 213.39684082 215.61375488 212.66868164 214.86743164 211.91845703 C211.80457576 208.83943049 208.74777689 205.75441677 205.69042969 202.66992188 C203.44155883 200.40284542 201.18959762 198.13887034 198.9375 195.875 C198.26017822 195.18937988 197.58285645 194.50375977 196.88500977 193.79736328 C193.70418014 190.60047479 190.48686989 187.51090951 187.06835938 184.56835938 C182.47839246 180.60754506 178.2313322 176.33879569 173.96875 172.03125 C172.71572083 170.77254089 172.71572083 170.77254089 171.43737793 169.48840332 C167.89663871 165.9314548 164.36192676 162.3685388 160.82666016 158.80615234 C158.2302794 156.19159836 155.63083434 153.58011816 153.03125 150.96875 C152.24455933 150.17376099 151.45786865 149.37877197 150.64733887 148.55969238 C147.18978464 145.08699854 143.71465224 141.69777922 140 138.5 C135.42970553 134.56563637 131.20865809 130.3158824 126.96875 126.03125 C126.13339722 125.1921106 125.29804443 124.35297119 124.43737793 123.48840332 C120.89663871 119.9314548 117.36192676 116.3685388 113.82666016 112.80615234 C111.2302794 110.19159836 108.63083434 107.58011816 106.03125 104.96875 C105.24455933 104.17376099 104.45786865 103.37877197 103.64733887 102.55969238 C99.5643228 98.45879799 95.39387234 94.5588347 91.00915527 90.78430176 C87.24107822 87.43792699 83.73040067 83.83134149 80.1875 80.25 C78.96776489 79.02458496 78.96776489 79.02458496 77.72338867 77.77441406 C74.2782266 74.31304958 70.8390971 70.84571409 67.39941406 67.37890625 C64.87253492 64.83384812 62.34258685 62.29186869 59.8125 59.75 C59.04768311 58.97688477 58.28286621 58.20376953 57.49487305 57.40722656 C54.09551466 53.99257759 50.67529583 50.66597104 47.02246094 47.52246094 C42.39511669 43.53708345 38.12216472 39.22924889 33.828125 34.890625 C32.56086578 33.61768585 32.56086578 33.61768585 31.26800537 32.31903076 C28.59288226 29.63178146 25.92104335 26.94130411 23.25 24.25 C19.71642178 20.68982972 16.17954784 17.13298168 12.640625 13.578125 C11.83328918 12.76249084 11.02595337 11.94685669 10.19415283 11.10650635 C9.43946716 10.34851746 8.68478149 9.59052856 7.90722656 8.80957031 C7.24740784 8.14451477 6.58758911 7.47945923 5.90777588 6.79425049 C4.01888707 4.93918231 4.01888707 4.93918231 1.75579834 3.38690186 C1.17638489 2.92922424 0.59697144 2.47154663 0 2 C0 1.34 0 0.68 0 0 Z " fill="#4290AA" transform="translate(54,1185)"/>
<path d="M0 0 C138.28339085 -0.40378642 138.28339085 -0.40378642 191.23416495 -0.48164964 C205.08038452 -0.50206173 218.92660325 -0.52294096 232.77281989 -0.54525994 C234.44762717 -0.54795835 236.12243447 -0.55064206 237.79724179 -0.55331089 C264.49705182 -0.59597933 291.19665009 -0.67101687 317.89633211 -0.76297221 C345.33726648 -0.8573088 372.77808373 -0.91885684 400.21917751 -0.9391499 C404.09503857 -0.94203145 407.97089923 -0.94528782 411.8467598 -0.94877243 C412.99099705 -0.94978378 412.99099705 -0.94978378 414.15835021 -0.95081555 C426.43778118 -0.96263278 438.71685007 -1.00901289 450.99613338 -1.06832034 C463.34106706 -1.1272072 475.68564178 -1.14967647 488.03071098 -1.13501377 C494.71981767 -1.12807722 501.40773336 -1.13854679 508.09671783 -1.19205475 C514.2202393 -1.24068223 520.34198248 -1.24320319 526.46558543 -1.20898895 C528.68112766 -1.2047599 530.89678037 -1.21748079 533.11210482 -1.24883182 C550.54357137 -1.48118291 550.54357137 -1.48118291 555.43946385 2.18136907 C557.9358301 4.65858103 559.9425936 7.15806601 562 10 C563.31893819 11.22642142 564.66736838 12.42306751 566.06054688 13.56445312 C570.6150221 17.47260437 574.81185689 21.70484898 579.03125 25.96875 C579.86660278 26.8078894 580.70195557 27.64702881 581.56262207 28.51159668 C585.10336129 32.0685452 588.63807324 35.6314612 592.17333984 39.19384766 C594.7697206 41.80840164 597.36916566 44.41988184 599.96875 47.03125 C600.75544067 47.82623901 601.54213135 48.62122803 602.35266113 49.44030762 C605.81021536 52.91300146 609.28534776 56.30222078 613 59.5 C617.57029447 63.43436363 621.79134191 67.6841176 626.03125 71.96875 C627.28427917 73.22745911 627.28427917 73.22745911 628.56262207 74.51159668 C632.10336129 78.0685452 635.63807324 81.6314612 639.17333984 85.19384766 C641.7697206 87.80840164 644.36916566 90.41988184 646.96875 93.03125 C647.75544067 93.82623901 648.54213135 94.62122803 649.35266113 95.44030762 C653.4356772 99.54120201 657.60612766 103.4411653 661.99084473 107.21569824 C665.75892178 110.56207301 669.26959933 114.16865851 672.8125 117.75 C674.03223511 118.97541504 674.03223511 118.97541504 675.27661133 120.22558594 C678.7217734 123.68695042 682.1609029 127.15428591 685.60058594 130.62109375 C688.12746508 133.16615188 690.65741315 135.70813131 693.1875 138.25 C693.95231689 139.02311523 694.71713379 139.79623047 695.50512695 140.59277344 C698.90737822 144.0103283 702.33087435 147.33957305 705.98632812 150.48632812 C710.56055019 154.42599231 714.78680615 158.67953399 719.03125 162.96875 C720.28427917 164.22745911 720.28427917 164.22745911 721.56262207 165.51159668 C725.10336129 169.0685452 728.63807324 172.6314612 732.17333984 176.19384766 C734.7697206 178.80840164 737.36916566 181.41988184 739.96875 184.03125 C740.75544067 184.82623901 741.54213135 185.62122803 742.35266113 186.44030762 C745.81021536 189.91300146 749.28534776 193.30222078 753 196.5 C757.57029447 200.43436363 761.79134191 204.6841176 766.03125 208.96875 C767.28427917 210.22745911 767.28427917 210.22745911 768.56262207 211.51159668 C772.10336129 215.0685452 775.63807324 218.6314612 779.17333984 222.19384766 C781.7697206 224.80840164 784.36916566 227.41988184 786.96875 230.03125 C787.75544067 230.82623901 788.54213135 231.62122803 789.35266113 232.44030762 C792.81021536 235.91300146 796.28534776 239.30222078 800 242.5 C804.57029447 246.43436363 808.79134191 250.6841176 813.03125 254.96875 C814.28427917 256.22745911 814.28427917 256.22745911 815.56262207 257.51159668 C819.10336129 261.0685452 822.63807324 264.6314612 826.17333984 268.19384766 C828.7697206 270.80840164 831.36916566 273.41988184 833.96875 276.03125 C834.75544067 276.82623901 835.54213135 277.62122803 836.35266113 278.44030762 C839.81021536 281.91300146 843.28534776 285.30222078 847 288.5 C851.57029447 292.43436363 855.79134191 296.6841176 860.03125 300.96875 C861.28427917 302.22745911 861.28427917 302.22745911 862.56262207 303.51159668 C866.10336129 307.0685452 869.63807324 310.6314612 873.17333984 314.19384766 C875.7697206 316.80840164 878.36916566 319.41988184 880.96875 322.03125 C881.75544067 322.82623901 882.54213135 323.62122803 883.35266113 324.44030762 C886.81021536 327.91300146 890.28534776 331.30222078 894 334.5 C898.57029447 338.43436363 902.79134191 342.6841176 907.03125 346.96875 C908.28427917 348.22745911 908.28427917 348.22745911 909.56262207 349.51159668 C913.10336129 353.0685452 916.63807324 356.6314612 920.17333984 360.19384766 C922.7697206 362.80840164 925.36916566 365.41988184 927.96875 368.03125 C928.75544067 368.82623901 929.54213135 369.62122803 930.35266113 370.44030762 C934.4356772 374.54120201 938.60612766 378.4411653 942.99084473 382.21569824 C946.75892178 385.56207301 950.26959933 389.16865851 953.8125 392.75 C955.03223511 393.97541504 955.03223511 393.97541504 956.27661133 395.22558594 C959.7217734 398.68695042 963.1609029 402.15428591 966.60058594 405.62109375 C969.12746508 408.16615188 971.65741315 410.70813131 974.1875 413.25 C974.95231689 414.02311523 975.71713379 414.79623047 976.50512695 415.59277344 C979.90737822 419.0103283 983.33087435 422.33957305 986.98632812 425.48632812 C991.56055019 429.42599231 995.78680615 433.67953399 1000.03125 437.96875 C1001.28427917 439.22745911 1001.28427917 439.22745911 1002.56262207 440.51159668 C1006.10336129 444.0685452 1009.63807324 447.6314612 1013.17333984 451.19384766 C1015.7697206 453.80840164 1018.36916566 456.41988184 1020.96875 459.03125 C1021.75544067 459.82623901 1022.54213135 460.62122803 1023.35266113 461.44030762 C1026.8073202 464.91009361 1030.27917146 468.29668728 1033.99121094 471.49121094 C1038.61463645 475.47127301 1042.88237425 479.77533721 1047.171875 484.109375 C1048.01671448 484.9580011 1048.86155396 485.8066272 1049.73199463 486.68096924 C1052.40711774 489.36821854 1055.07895665 492.05869589 1057.75 494.75 C1061.28357822 498.31017028 1064.82045216 501.86701832 1068.359375 505.421875 C1069.16671082 506.23750916 1069.97404663 507.05314331 1070.80584717 507.89349365 C1071.93787567 509.03047699 1071.93787567 509.03047699 1073.09277344 510.19042969 C1073.75259216 510.85548523 1074.41241089 511.52054077 1075.09222412 512.20574951 C1076.98111293 514.06081769 1076.98111293 514.06081769 1079.24420166 515.61309814 C1080.11332184 516.29961456 1080.11332184 516.29961456 1081 517 C1081 517.66 1081 518.32 1081 519 C724.27 519 367.54 519 0 519 C0 347.73 0 176.46 0 0 Z " fill="#F9A52F" transform="translate(605,0)"/>
<path d="M0 0 C0 349.14 0 698.28 0 1058 C-174.9 1058 -349.8 1058 -530 1058 C-530.36340778 922.43992426 -530.36340778 922.43992426 -530.43348467 870.53809392 C-530.45185564 856.96609778 -530.470647 843.39410233 -530.49073394 829.8221086 C-530.49316251 828.18046122 -530.49557785 826.53881382 -530.4979798 824.89716639 C-530.53638457 798.72383921 -530.60392077 772.55068694 -530.68667499 746.3774655 C-530.77156893 719.47865685 -530.82696908 692.57994495 -530.84523491 665.6810046 C-530.84782832 661.88212311 -530.85075905 658.08324196 -530.85389519 654.28436089 C-530.85450199 653.53668328 -530.8551088 652.78900568 -530.855734 652.01867118 C-530.86637141 639.9808289 -530.90811876 627.94328567 -530.96148831 615.90556537 C-531.01447358 603.80486714 -531.03471201 591.70446551 -531.0215124 579.60365535 C-531.01526766 573.04647068 -531.02471361 566.48999287 -531.07284927 559.93294716 C-531.1165883 553.93108713 -531.11889874 547.93069701 -531.08809005 541.92876988 C-531.08428147 539.75632002 -531.09575113 537.58377912 -531.12394864 535.41150893 C-531.32231082 519.18831068 -531.32231082 519.18831068 -528.06454265 513.79698455 C-525.82506916 511.51323404 -523.65231048 509.77187504 -521 508 C-519.65389937 506.84818152 -518.31886027 505.68313265 -517.00195312 504.49804688 C-516.34912354 503.93657959 -515.69629395 503.3751123 -515.02368164 502.79663086 C-511.17344862 499.378382 -507.5889189 495.68960594 -503.96875 492.03125 C-502.71572083 490.77254089 -502.71572083 490.77254089 -501.43737793 489.48840332 C-498.78912914 486.828031 -496.14415594 484.16443987 -493.5 481.5 C-490.01337399 477.98662727 -486.52335074 474.47668029 -483.03125 470.96875 C-482.24455933 470.17376099 -481.45786865 469.37877197 -480.64733887 468.55969238 C-476.56865668 464.46315085 -472.40255734 460.56825496 -468.02258301 456.79772949 C-464.17434594 453.37730658 -460.58890928 449.68959622 -456.96875 446.03125 C-456.13339722 445.1921106 -455.29804443 444.35297119 -454.43737793 443.48840332 C-451.78912914 440.828031 -449.14415594 438.16443987 -446.5 435.5 C-443.01337399 431.98662727 -439.52335074 428.47668029 -436.03125 424.96875 C-435.24455933 424.17376099 -434.45786865 423.37877197 -433.64733887 422.55969238 C-429.56865668 418.46315085 -425.40255734 414.56825496 -421.02258301 410.79772949 C-417.17434594 407.37730658 -413.58890928 403.68959622 -409.96875 400.03125 C-409.13339722 399.1921106 -408.29804443 398.35297119 -407.43737793 397.48840332 C-404.78912914 394.828031 -402.14415594 392.16443987 -399.5 389.5 C-396.01337399 385.98662727 -392.52335074 382.47668029 -389.03125 378.96875 C-388.24455933 378.17376099 -387.45786865 377.37877197 -386.64733887 376.55969238 C-382.5643228 372.45879799 -378.39387234 368.5588347 -374.00915527 364.78430176 C-370.24107822 361.43792699 -366.73040067 357.83134149 -363.1875 354.25 C-362.37434326 353.43305664 -361.56118652 352.61611328 -360.72338867 351.77441406 C-358.14646703 349.18537329 -355.57282375 346.59311263 -353 344 C-349.60712847 340.58037281 -346.21085343 337.16417851 -342.8125 333.75 C-342.04768311 332.97688477 -341.28286621 332.20376953 -340.49487305 331.40722656 C-337.09262178 327.9896717 -333.66912565 324.66042695 -330.01367188 321.51367188 C-325.43944981 317.57400769 -321.21319385 313.32046601 -316.96875 309.03125 C-316.13339722 308.1921106 -315.29804443 307.35297119 -314.43737793 306.48840332 C-311.78912914 303.828031 -309.14415594 301.16443987 -306.5 298.5 C-303.01337399 294.98662727 -299.52335074 291.47668029 -296.03125 287.96875 C-295.24455933 287.17376099 -294.45786865 286.37877197 -293.64733887 285.55969238 C-289.56865668 281.46315085 -285.40255734 277.56825496 -281.02258301 273.79772949 C-277.17434594 270.37730658 -273.58890928 266.68959622 -269.96875 263.03125 C-269.13339722 262.1921106 -268.29804443 261.35297119 -267.43737793 260.48840332 C-264.78912914 257.828031 -262.14415594 255.16443987 -259.5 252.5 C-256.01337399 248.98662727 -252.52335074 245.47668029 -249.03125 241.96875 C-248.24455933 241.17376099 -247.45786865 240.37877197 -246.64733887 239.55969238 C-242.56865668 235.46315085 -238.40255734 231.56825496 -234.02258301 227.79772949 C-230.17434594 224.37730658 -226.58890928 220.68959622 -222.96875 217.03125 C-222.13339722 216.1921106 -221.29804443 215.35297119 -220.43737793 214.48840332 C-217.78912914 211.828031 -215.14415594 209.16443987 -212.5 206.5 C-209.01337399 202.98662727 -205.52335074 199.47668029 -202.03125 195.96875 C-201.24455933 195.17376099 -200.45786865 194.37877197 -199.64733887 193.55969238 C-195.5643228 189.45879799 -191.39387234 185.5588347 -187.00915527 181.78430176 C-183.24107822 178.43792699 -179.73040067 174.83134149 -176.1875 171.25 C-174.96776489 170.02458496 -174.96776489 170.02458496 -173.72338867 168.77441406 C-171.14646703 166.18537329 -168.57282375 163.59311263 -166 161 C-162.60712847 157.58037281 -159.21085343 154.16417851 -155.8125 150.75 C-155.04768311 149.97688477 -154.28286621 149.20376953 -153.49487305 148.40722656 C-150.09262178 144.9896717 -146.66912565 141.66042695 -143.01367188 138.51367188 C-138.43944981 134.57400769 -134.21319385 130.32046601 -129.96875 126.03125 C-129.13339722 125.1921106 -128.29804443 124.35297119 -127.43737793 123.48840332 C-124.78912914 120.828031 -122.14415594 118.16443987 -119.5 115.5 C-116.01337399 111.98662727 -112.52335074 108.47668029 -109.03125 104.96875 C-108.24455933 104.17376099 -107.45786865 103.37877197 -106.64733887 102.55969238 C-102.56865668 98.46315085 -98.40255734 94.56825496 -94.02258301 90.79772949 C-90.17434594 87.37730658 -86.58890928 83.68959622 -82.96875 80.03125 C-82.13339722 79.1921106 -81.29804443 78.35297119 -80.43737793 77.48840332 C-77.78912914 74.828031 -75.14415594 72.16443987 -72.5 69.5 C-69.01337399 65.98662727 -65.52335074 62.47668029 -62.03125 58.96875 C-61.24455933 58.17376099 -60.45786865 57.37877197 -59.64733887 56.55969238 C-56.19195601 53.08917942 -52.71928436 49.70192949 -49.0065918 46.5065918 C-44.39644881 42.53795405 -40.1403845 38.24746781 -35.86328125 33.92578125 C-35.02081345 33.07952682 -34.17834564 32.2332724 -33.31034851 31.3613739 C-30.64194398 28.68084384 -27.97682152 25.99708803 -25.3125 23.3125 C-21.79065956 19.76402938 -18.2654985 16.2189064 -14.73828125 12.67578125 C-13.93610672 11.86530838 -13.13393219 11.05483551 -12.30744934 10.21980286 C-2.13218757 0 -2.13218757 0 0 0 Z " fill="#4494AD" transform="translate(530,53)"/>
<path d="M0 0 C174.9 0 349.8 0 530 0 C530 170.94 530 341.88 530 518 C355.1 518 180.2 518 0 518 C0 347.06 0 176.12 0 0 Z " fill="#F9A92E" transform="translate(1210,593)"/>
</svg>
